<?xml version="1.0" standalone="no"?><!DOCTYPE svg PUBLIC "-//W3C//DTD SVG 1.1//EN" "http://www.w3.org/Graphics/SVG/1.1/DTD/svg11.dtd"><svg t="1599229197510" class="icon" viewBox="0 0 1024 1024" version="1.1" xmlns="http://www.w3.org/2000/svg" p-id="3900" xmlns:xlink="http://www.w3.org/1999/xlink" width="200" height="200"><defs><style type="text/css"></style></defs><path d="M886.328889 91.022222c15.928889 0 29.582222 13.653333 29.582222 29.582222v712.248889c0 15.928889-13.653333 29.582222-29.582222 29.582223H560.924444c-15.928889 0-29.582222-13.653333-29.582222-29.582223v3.413334c0 14.791111-11.377778 26.168889-26.168889 26.168889H171.804444c-14.791111 0-26.168889-11.377778-26.168888-26.168889V117.191111c0-14.791111 11.377778-26.168889 26.168888-26.168889h332.231112c14.791111 0 26.168889 11.377778 26.168888 26.168889v3.413333c0-15.928889 13.653333-29.582222 29.582223-29.582222h326.542222m0-19.342222H560.924444c-10.24 0-20.48 3.413333-28.444444 9.102222-7.964444-5.688889-17.066667-9.102222-27.306667-9.102222H171.804444c-25.031111 0-45.511111 20.48-45.511111 45.511111v717.937778c0 25.031111 20.48 45.511111 45.511111 45.511111h332.231112c10.24 0 19.342222-3.413333 27.306666-9.102222 7.964444 5.688889 18.204444 9.102222 28.444445 9.102222h326.542222c27.306667 0 48.924444-21.617778 48.924444-48.924444V120.604444c0-27.306667-21.617778-48.924444-48.924444-48.924444z" fill="#231815" p-id="3901"></path><path d="M531.342222 803.271111c-3.413333 0-5.688889-2.275556-5.688889-5.688889V154.737778c0-3.413333 2.275556-5.688889 5.688889-5.688889s5.688889 2.275556 5.688889 5.688889v642.844444c0 3.413333-3.413333 5.688889-5.688889 5.688889zM425.528889 225.28H250.311111c-3.413333 0-5.688889-2.275556-5.688889-5.688889s2.275556-5.688889 5.688889-5.688889h175.217778c3.413333 0 5.688889 2.275556 5.688889 5.688889s-2.275556 5.688889-5.688889 5.688889zM425.528889 353.848889H250.311111c-3.413333 0-5.688889-2.275556-5.688889-5.688889s2.275556-5.688889 5.688889-5.688889h175.217778c3.413333 0 5.688889 2.275556 5.688889 5.688889s-2.275556 5.688889-5.688889 5.688889zM425.528889 482.417778H250.311111c-3.413333 0-5.688889-2.275556-5.688889-5.688889s2.275556-5.688889 5.688889-5.688889h175.217778c3.413333 0 5.688889 2.275556 5.688889 5.688889s-2.275556 5.688889-5.688889 5.688889zM425.528889 610.986667H250.311111c-3.413333 0-5.688889-2.275556-5.688889-5.688889s2.275556-5.688889 5.688889-5.688889h175.217778c3.413333 0 5.688889 2.275556 5.688889 5.688889s-2.275556 5.688889-5.688889 5.688889zM425.528889 739.555556H250.311111c-3.413333 0-5.688889-2.275556-5.688889-5.688889s2.275556-5.688889 5.688889-5.688889h175.217778c3.413333 0 5.688889 2.275556 5.688889 5.688889 0 2.275556-2.275556 5.688889-5.688889 5.688889zM803.271111 225.28H626.915556c-3.413333 0-5.688889-2.275556-5.688889-5.688889s2.275556-5.688889 5.688889-5.688889h175.217777c3.413333 0 5.688889 2.275556 5.688889 5.688889s-1.137778 5.688889-4.551111 5.688889zM803.271111 353.848889H626.915556c-3.413333 0-5.688889-2.275556-5.688889-5.688889s2.275556-5.688889 5.688889-5.688889h175.217777c3.413333 0 5.688889 2.275556 5.688889 5.688889s-1.137778 5.688889-4.551111 5.688889zM803.271111 482.417778H626.915556c-3.413333 0-5.688889-2.275556-5.688889-5.688889s2.275556-5.688889 5.688889-5.688889h175.217777c3.413333 0 5.688889 2.275556 5.688889 5.688889s-1.137778 5.688889-4.551111 5.688889zM803.271111 610.986667H626.915556c-3.413333 0-5.688889-2.275556-5.688889-5.688889s2.275556-5.688889 5.688889-5.688889h175.217777c3.413333 0 5.688889 2.275556 5.688889 5.688889s-1.137778 5.688889-4.551111 5.688889zM803.271111 739.555556H626.915556c-3.413333 0-5.688889-2.275556-5.688889-5.688889s2.275556-5.688889 5.688889-5.688889h175.217777c3.413333 0 5.688889 2.275556 5.688889 5.688889 1.137778 2.275556-1.137778 5.688889-4.551111 5.688889z" fill="#231815" p-id="3902"></path></svg>